<svg id="_レイヤー_2" xmlns="http://www.w3.org/2000/svg" viewBox="0 0 420 75"><defs><style>.cls-1,.cls-2{fill:#299bb1;stroke-width:0}.cls-2{fill:#69b7d4}</style></defs><g id="_デザイン"><path class="cls-1" d="M100.81 38.53c0 9.24-5.01 12.04-11.59 12.04-2.7 0-5.12-.79-5.12-.79v-3.36s2.61.78 4.8.78c4.74 0 7.44-1.85 7.44-9V14.22h4.48v24.31zm99.97-14.97c-4.21 0-11.32 1.94-11.32 10.71v16.3h4.47V34.74c0-4.22 1.73-7.91 6.85-7.91s6.84 3.7 6.84 7.91v15.83h4.47v-16.3c0-8.77-7.11-10.71-11.32-10.71zm16.33 11.98h7.26v3.04h-7.26v-3.04zm64.71-12.36c-7.49 0-13.74 4.88-13.74 13.7s6.25 13.69 13.74 13.69 13.74-4.88 13.74-13.69-6.25-13.7-13.74-13.7zm0 24.31c-6.36 0-9.16-5.64-9.16-10.62s2.8-10.62 9.16-10.62 9.16 5.64 9.16 10.62-2.8 10.62-9.16 10.62zm92.31-24.31c-7.49 0-13.74 4.88-13.74 13.7v13.69h4.58V36.88c0-4.98 2.8-10.62 9.16-10.62v-3.08zm-107.07 0c-7.49 0-13.74 4.88-13.74 13.7v13.69h4.58V36.88c0-4.98 2.8-10.62 9.16-10.62v-3.08zm113.34-3.05l4.42-2.32v5.37h7.6v3.08h-7.6v15.97c0 3.27 1.13 5.07 3.99 5.07h3.73l-.44 3.27h-4.37c-7.12 0-7.33-5.69-7.33-8.43V26.26h-4.53v-3.08h4.53v-3.04zm-67.06 3.05c-7.49 0-13.74 4.88-13.74 13.7v23.31h4.62V47.5c2.44 2.01 5.64 3.07 9.12 3.07 7.49 0 13.74-4.88 13.74-13.69s-6.25-13.7-13.74-13.7zm0 24.31c-6.36 0-9.16-5.64-9.16-10.62s2.8-10.62 9.16-10.62 9.16 5.64 9.16 10.62-2.8 10.62-9.16 10.62zM144.82 23.18c-7.49 0-13.74 4.88-13.74 13.7v23.31h4.62V47.5c2.44 2.01 5.64 3.07 9.12 3.07 7.49 0 13.74-4.88 13.74-13.69s-6.25-13.7-13.74-13.7zm0 24.31c-6.36 0-9.16-5.64-9.16-10.62s2.8-10.62 9.16-10.62 9.16 5.64 9.16 10.62-2.8 10.62-9.16 10.62zm190.4-9.6h22.86c.02-.34.04-.67.04-1.02 0-8.81-6.25-13.7-13.74-13.7s-13.74 4.88-13.74 13.7 6.25 13.69 13.74 13.69c5.9 0 11.01-3.04 12.93-8.62h-4.78c-1.32 3.09-3.96 5.54-8.15 5.54-6.36 0-9.16-5.64-9.16-10.62s2.8-10.62 9.16-10.62c5.55 0 8.39 4.3 9.02 8.7h-18.19v2.94zm72.88 7.77l-10.05-22.48h-4.91s12.14 26.72 12.14 26.96"/><path class="cls-1" d="M415.26 23.18s-7.54 18.22-9.13 21.99c-1.6 3.76-3.66 9.6-9.09 12.14v3.94c4.47 0 9.26-5.41 12.77-13.93L420 23.18h-4.74zm-176.23-8.96h-9.32v36.35h4.47V17.4h4.9c5.61 0 9.81 2.27 9.81 7.44s-4.2 7.44-9.81 7.44h-5.8v3.18h5.75c13.26 0 14.34-7.77 14.34-10.62s-1.08-10.62-14.34-10.62zm-66.57 9.34c-3.29 0-7.85 1.38-10.22 2.75v3.39c1.99-1.23 6.99-3.11 9.52-3.11 6.68 0 6.68 4.93 6.68 7.11-10.89-.05-17.03 3.32-17.03 9.52 0 3.74 2.96 7.34 8.57 7.34 5.04 0 8.52-3.69 8.52-3.69v3.69h4.42V33.83c0-5.12-2.16-10.28-10.46-10.28zm6.04 17.91c0 3.13-3.07 6.06-7.43 6.06-2.7 0-5.07-1.47-5.07-4.79 0-5.45 6.95-6.16 12.5-6.16v4.88zm-62.26-17.91c-3.29 0-7.85 1.38-10.22 2.75v3.39c1.99-1.23 6.99-3.11 9.52-3.11 6.68 0 6.68 4.93 6.68 7.11-10.89-.05-17.03 3.32-17.03 9.52 0 3.74 2.97 7.34 8.57 7.34 5.03 0 8.52-3.69 8.52-3.69v3.69h4.42V33.83c0-5.12-2.16-10.28-10.46-10.28zm6.04 17.91c0 3.13-3.07 6.06-7.44 6.06-2.69 0-5.07-1.47-5.07-4.79 0-5.45 6.95-6.16 12.5-6.16v4.88z"/><path class="cls-2" d="M0 36.74v20.2L31.84 75V38.88l-8-4.74v28.08l-16.87-9.3V40.76L0 36.74z"/><path class="cls-1" d="M66.78 20.82L34.94 38.88V75l6.97-4.02v-8.02l24.87-14.04V20.81zM59.82 44.9L41.91 54.92V42.9l17.91-10.02V44.9zM34.94 0v35.85l31.05-17.92L34.94 0z"/><path class="cls-2" d="M31.84 0L.79 17.93l31.05 17.92V0z"/></g></svg>